<svg width="100%" viewBox="0 0 680 575" role="img" xmlns="http://www.w3.org/2000/svg">
<title>Zʹ → t t̄, 2 TeV (2024 MC) — hadronic cutflow</title><desc>Cutflow funnel.</desc>
<rect x="0" y="0" width="680" height="575" fill="#ffffff"/>
<text x="40" y="42" font-family="Helvetica, Arial, sans-serif" font-size="18" font-weight="500" fill="#2C2C2A">Zʹ → t t̄, 2 TeV (2024 MC) — hadronic cutflow</text>
<polygon points="35.0,96.0 395.0,96.0 381.8,124 48.2,124" fill="#85B7EB" opacity="0.5"/>
<polygon points="48.2,148.0 381.8,148.0 367.0,176 63.0,176" fill="#85B7EB" opacity="0.5"/>
<polygon points="63.0,200.0 367.0,200.0 366.8,228 63.2,228" fill="#85B7EB" opacity="0.5"/>
<polygon points="63.2,252.0 366.8,252.0 366.8,280 63.2,280" fill="#85B7EB" opacity="0.5"/>
<polygon points="63.2,304.0 366.8,304.0 365.6,332 64.4,332" fill="#85B7EB" opacity="0.5"/>
<polygon points="64.4,356.0 365.6,356.0 365.0,384 65.0,384" fill="#85B7EB" opacity="0.5"/>
<path d="M65.0,408.0 C65.0,439.0 46,439.0 46,470 L184,470 C184,439.0 140.0,439.0 140.0,408.0 Z" fill="#5DCAA5" opacity="0.4"/>
<path d="M140.0,408.0 C140.0,439.0 196,439.0 196,470 L334,470 C334,439.0 215.0,439.0 215.0,408.0 Z" fill="#5DCAA5" opacity="0.4"/>
<path d="M215.0,408.0 C215.0,439.0 346,439.0 346,470 L484,470 C484,439.0 290.0,439.0 290.0,408.0 Z" fill="#F0997B" opacity="0.4"/>
<path d="M290.0,408.0 C290.0,439.0 496,439.0 496,470 L634,470 C634,439.0 365.0,439.0 365.0,408.0 Z" fill="#F0997B" opacity="0.4"/>
<rect x="35.0" y="72" width="360.0" height="24.0" rx="3" fill="#E6F1FB" stroke="#185FA5" stroke-width="0.8"/>
<text x="412" y="82" font-family="Helvetica, Arial, sans-serif" font-size="14" font-weight="500" fill="#2C2C2A">Total events</text>
<text x="412" y="98" font-family="Helvetica, Arial, sans-serif" font-size="12" fill="#5F5E5A">109,950 · σ = 1 pb at 109.95 fb⁻¹</text>
<rect x="48.2" y="124" width="333.6" height="24.0" rx="3" fill="#E6F1FB" stroke="#185FA5" stroke-width="0.8"/>
<text x="412" y="134" font-family="Helvetica, Arial, sans-serif" font-size="14" font-weight="500" fill="#2C2C2A">HLT PFHT1050</text>
<text x="412" y="150" font-family="Helvetica, Arial, sans-serif" font-size="12" fill="#5F5E5A">75,663 · 68.8% kept</text>
<rect x="63.0" y="176" width="304.0" height="24.0" rx="3" fill="#E6F1FB" stroke="#185FA5" stroke-width="0.8"/>
<text x="412" y="186" font-family="Helvetica, Arial, sans-serif" font-size="14" font-weight="500" fill="#2C2C2A">H_T &gt; 1400 GeV</text>
<text x="412" y="202" font-family="Helvetica, Arial, sans-serif" font-size="12" fill="#5F5E5A">49,740 · 65.7% kept</text>
<rect x="63.2" y="228" width="303.6" height="24.0" rx="3" fill="#E6F1FB" stroke="#185FA5" stroke-width="0.8"/>
<text x="412" y="238" font-family="Helvetica, Arial, sans-serif" font-size="14" font-weight="500" fill="#2C2C2A">MET filters</text>
<text x="412" y="254" font-family="Helvetica, Arial, sans-serif" font-size="12" fill="#5F5E5A">49,470 · 99.5% kept</text>
<rect x="63.2" y="280" width="303.6" height="24.0" rx="3" fill="#E6F1FB" stroke="#185FA5" stroke-width="0.8"/>
<text x="412" y="290" font-family="Helvetica, Arial, sans-serif" font-size="14" font-weight="500" fill="#2C2C2A">≥ 1 AK8 jet</text>
<text x="412" y="306" font-family="Helvetica, Arial, sans-serif" font-size="12" fill="#5F5E5A">49,449 · 100.0% kept</text>
<rect x="64.4" y="332" width="301.2" height="24.0" rx="3" fill="#E6F1FB" stroke="#185FA5" stroke-width="0.8"/>
<text x="412" y="342" font-family="Helvetica, Arial, sans-serif" font-size="14" font-weight="500" fill="#2C2C2A">≥ 2 AK8 jets</text>
<text x="412" y="358" font-family="Helvetica, Arial, sans-serif" font-size="12" fill="#5F5E5A">47,831 · 96.7% kept</text>
<rect x="65.0" y="384" width="299.9" height="24.0" rx="3" fill="#E6F1FB" stroke="#185FA5" stroke-width="0.8"/>
<text x="412" y="394" font-family="Helvetica, Arial, sans-serif" font-size="14" font-weight="500" fill="#2C2C2A">tt̄ candidate</text>
<text x="412" y="410" font-family="Helvetica, Arial, sans-serif" font-size="12" fill="#5F5E5A">46,950 · 98.2% kept</text>
<rect x="46" y="470" width="138" height="56" rx="8" fill="#E1F5EE" stroke="#0F6E56" stroke-width="0.8"/>
<text x="115.0" y="490" text-anchor="middle" font-family="Helvetica, Arial, sans-serif" font-size="14" font-weight="500" fill="#085041">Pass · central</text>
<text x="115.0" y="508" text-anchor="middle" font-family="Helvetica, Arial, sans-serif" font-size="14" fill="#085041">7,453</text>
<text x="115.0" y="521" text-anchor="middle" font-family="Helvetica, Arial, sans-serif" font-size="12" fill="#085041">15.9% of cand.</text>
<rect x="196" y="470" width="138" height="56" rx="8" fill="#E1F5EE" stroke="#0F6E56" stroke-width="0.8"/>
<text x="265.0" y="490" text-anchor="middle" font-family="Helvetica, Arial, sans-serif" font-size="14" font-weight="500" fill="#085041">Pass · forward</text>
<text x="265.0" y="508" text-anchor="middle" font-family="Helvetica, Arial, sans-serif" font-size="14" fill="#085041">4,138</text>
<text x="265.0" y="521" text-anchor="middle" font-family="Helvetica, Arial, sans-serif" font-size="12" fill="#085041">8.8% of cand.</text>
<rect x="346" y="470" width="138" height="56" rx="8" fill="#FAECE7" stroke="#993C1D" stroke-width="0.8"/>
<text x="415.0" y="490" text-anchor="middle" font-family="Helvetica, Arial, sans-serif" font-size="14" font-weight="500" fill="#712B13">Fail · central</text>
<text x="415.0" y="508" text-anchor="middle" font-family="Helvetica, Arial, sans-serif" font-size="14" fill="#712B13">3,586</text>
<text x="415.0" y="521" text-anchor="middle" font-family="Helvetica, Arial, sans-serif" font-size="12" fill="#712B13">7.6% of cand.</text>
<rect x="496" y="470" width="138" height="56" rx="8" fill="#FAECE7" stroke="#993C1D" stroke-width="0.8"/>
<text x="565.0" y="490" text-anchor="middle" font-family="Helvetica, Arial, sans-serif" font-size="14" font-weight="500" fill="#712B13">Fail · forward</text>
<text x="565.0" y="508" text-anchor="middle" font-family="Helvetica, Arial, sans-serif" font-size="14" fill="#712B13">1,686</text>
<text x="565.0" y="521" text-anchor="middle" font-family="Helvetica, Arial, sans-serif" font-size="12" fill="#712B13">3.6% of cand.</text>
<rect x="46" y="548" width="12" height="12" rx="3" fill="#E1F5EE" stroke="#0F6E56" stroke-width="0.8"/>
<text x="63" y="558" font-family="Helvetica, Arial, sans-serif" font-size="12" fill="#5F5E5A">Pass region (2 top-tags)</text>
<rect x="240" y="548" width="12" height="12" rx="3" fill="#FAECE7" stroke="#993C1D" stroke-width="0.8"/>
<text x="257" y="558" font-family="Helvetica, Arial, sans-serif" font-size="12" fill="#5F5E5A">Fail region (antitag)</text>
<text x="430" y="558" font-family="Helvetica, Arial, sans-serif" font-size="12" fill="#5F5E5A">Bar width ∝ log₁₀(events)</text>
</svg>