<svg width="100%" viewBox="0 0 680 575" role="img" xmlns="http://www.w3.org/2000/svg">
<title>Zʹ → t t̄, 4 TeV (2024 MC) — hadronic cutflow</title><desc>Cutflow funnel.</desc>
<rect x="0" y="0" width="680" height="575" fill="#ffffff"/>
<text x="40" y="42" font-family="Helvetica, Arial, sans-serif" font-size="18" font-weight="500" fill="#2C2C2A">Zʹ → t t̄, 4 TeV (2024 MC) — hadronic cutflow</text>
<polygon points="35.0,96.0 395.0,96.0 389.3,124 40.7,124" fill="#85B7EB" opacity="0.5"/>
<polygon points="40.7,148.0 389.3,148.0 386.6,176 43.4,176" fill="#85B7EB" opacity="0.5"/>
<polygon points="43.4,200.0 386.6,200.0 386.0,228 44.0,228" fill="#85B7EB" opacity="0.5"/>
<polygon points="44.0,252.0 386.0,252.0 386.0,280 44.0,280" fill="#85B7EB" opacity="0.5"/>
<polygon points="44.0,304.0 386.0,304.0 384.5,332 45.5,332" fill="#85B7EB" opacity="0.5"/>
<polygon points="45.5,356.0 384.5,356.0 383.2,384 46.8,384" fill="#85B7EB" opacity="0.5"/>
<path d="M46.8,408.0 C46.8,439.0 46,439.0 46,470 L184,470 C184,439.0 130.9,439.0 130.9,408.0 Z" fill="#5DCAA5" opacity="0.4"/>
<path d="M130.9,408.0 C130.9,439.0 196,439.0 196,470 L334,470 C334,439.0 215.0,439.0 215.0,408.0 Z" fill="#5DCAA5" opacity="0.4"/>
<path d="M215.0,408.0 C215.0,439.0 346,439.0 346,470 L484,470 C484,439.0 299.1,439.0 299.1,408.0 Z" fill="#F0997B" opacity="0.4"/>
<path d="M299.1,408.0 C299.1,439.0 496,439.0 496,470 L634,470 C634,439.0 383.2,439.0 383.2,408.0 Z" fill="#F0997B" opacity="0.4"/>
<rect x="35.0" y="72" width="360.0" height="24.0" rx="3" fill="#E6F1FB" stroke="#185FA5" stroke-width="0.8"/>
<text x="412" y="82" font-family="Helvetica, Arial, sans-serif" font-size="14" font-weight="500" fill="#2C2C2A">Total events</text>
<text x="412" y="98" font-family="Helvetica, Arial, sans-serif" font-size="12" fill="#5F5E5A">109,950 · σ = 1 pb at 109.95 fb⁻¹</text>
<rect x="40.7" y="124" width="348.5" height="24.0" rx="3" fill="#E6F1FB" stroke="#185FA5" stroke-width="0.8"/>
<text x="412" y="134" font-family="Helvetica, Arial, sans-serif" font-size="14" font-weight="500" fill="#2C2C2A">HLT PFHT1050</text>
<text x="412" y="150" font-family="Helvetica, Arial, sans-serif" font-size="12" fill="#5F5E5A">95,676 · 87.0% kept</text>
<rect x="43.4" y="176" width="343.1" height="24.0" rx="3" fill="#E6F1FB" stroke="#185FA5" stroke-width="0.8"/>
<text x="412" y="186" font-family="Helvetica, Arial, sans-serif" font-size="14" font-weight="500" fill="#2C2C2A">H_T &gt; 1400 GeV</text>
<text x="412" y="202" font-family="Helvetica, Arial, sans-serif" font-size="12" fill="#5F5E5A">89,596 · 93.6% kept</text>
<rect x="44.0" y="228" width="341.9" height="24.0" rx="3" fill="#E6F1FB" stroke="#185FA5" stroke-width="0.8"/>
<text x="412" y="238" font-family="Helvetica, Arial, sans-serif" font-size="14" font-weight="500" fill="#2C2C2A">MET filters</text>
<text x="412" y="254" font-family="Helvetica, Arial, sans-serif" font-size="12" fill="#5F5E5A">88,318 · 98.6% kept</text>
<rect x="44.0" y="280" width="341.9" height="24.0" rx="3" fill="#E6F1FB" stroke="#185FA5" stroke-width="0.8"/>
<text x="412" y="290" font-family="Helvetica, Arial, sans-serif" font-size="14" font-weight="500" fill="#2C2C2A">≥ 1 AK8 jet</text>
<text x="412" y="306" font-family="Helvetica, Arial, sans-serif" font-size="12" fill="#5F5E5A">88,295 · 100.0% kept</text>
<rect x="45.5" y="332" width="338.9" height="24.0" rx="3" fill="#E6F1FB" stroke="#185FA5" stroke-width="0.8"/>
<text x="412" y="342" font-family="Helvetica, Arial, sans-serif" font-size="14" font-weight="500" fill="#2C2C2A">≥ 2 AK8 jets</text>
<text x="412" y="358" font-family="Helvetica, Arial, sans-serif" font-size="12" fill="#5F5E5A">85,143 · 96.4% kept</text>
<rect x="46.8" y="384" width="336.5" height="24.0" rx="3" fill="#E6F1FB" stroke="#185FA5" stroke-width="0.8"/>
<text x="412" y="394" font-family="Helvetica, Arial, sans-serif" font-size="14" font-weight="500" fill="#2C2C2A">tt̄ candidate</text>
<text x="412" y="410" font-family="Helvetica, Arial, sans-serif" font-size="12" fill="#5F5E5A">82,667 · 97.1% kept</text>
<rect x="46" y="470" width="138" height="56" rx="8" fill="#E1F5EE" stroke="#0F6E56" stroke-width="0.8"/>
<text x="115.0" y="490" text-anchor="middle" font-family="Helvetica, Arial, sans-serif" font-size="14" font-weight="500" fill="#085041">Pass · central</text>
<text x="115.0" y="508" text-anchor="middle" font-family="Helvetica, Arial, sans-serif" font-size="14" fill="#085041">5,894</text>
<text x="115.0" y="521" text-anchor="middle" font-family="Helvetica, Arial, sans-serif" font-size="12" fill="#085041">7.1% of cand.</text>
<rect x="196" y="470" width="138" height="56" rx="8" fill="#E1F5EE" stroke="#0F6E56" stroke-width="0.8"/>
<text x="265.0" y="490" text-anchor="middle" font-family="Helvetica, Arial, sans-serif" font-size="14" font-weight="500" fill="#085041">Pass · forward</text>
<text x="265.0" y="508" text-anchor="middle" font-family="Helvetica, Arial, sans-serif" font-size="14" fill="#085041">9,523</text>
<text x="265.0" y="521" text-anchor="middle" font-family="Helvetica, Arial, sans-serif" font-size="12" fill="#085041">11.5% of cand.</text>
<rect x="346" y="470" width="138" height="56" rx="8" fill="#FAECE7" stroke="#993C1D" stroke-width="0.8"/>
<text x="415.0" y="490" text-anchor="middle" font-family="Helvetica, Arial, sans-serif" font-size="14" font-weight="500" fill="#712B13">Fail · central</text>
<text x="415.0" y="508" text-anchor="middle" font-family="Helvetica, Arial, sans-serif" font-size="14" fill="#712B13">3,512</text>
<text x="415.0" y="521" text-anchor="middle" font-family="Helvetica, Arial, sans-serif" font-size="12" fill="#712B13">4.2% of cand.</text>
<rect x="496" y="470" width="138" height="56" rx="8" fill="#FAECE7" stroke="#993C1D" stroke-width="0.8"/>
<text x="565.0" y="490" text-anchor="middle" font-family="Helvetica, Arial, sans-serif" font-size="14" font-weight="500" fill="#712B13">Fail · forward</text>
<text x="565.0" y="508" text-anchor="middle" font-family="Helvetica, Arial, sans-serif" font-size="14" fill="#712B13">4,508</text>
<text x="565.0" y="521" text-anchor="middle" font-family="Helvetica, Arial, sans-serif" font-size="12" fill="#712B13">5.5% of cand.</text>
<rect x="46" y="548" width="12" height="12" rx="3" fill="#E1F5EE" stroke="#0F6E56" stroke-width="0.8"/>
<text x="63" y="558" font-family="Helvetica, Arial, sans-serif" font-size="12" fill="#5F5E5A">Pass region (2 top-tags)</text>
<rect x="240" y="548" width="12" height="12" rx="3" fill="#FAECE7" stroke="#993C1D" stroke-width="0.8"/>
<text x="257" y="558" font-family="Helvetica, Arial, sans-serif" font-size="12" fill="#5F5E5A">Fail region (antitag)</text>
<text x="430" y="558" font-family="Helvetica, Arial, sans-serif" font-size="12" fill="#5F5E5A">Bar width ∝ log₁₀(events)</text>
</svg>